# xmcd
# 
# Track frame offsets:
#     200
#     13707
#     33830
#     47702
#     71617
#     95960
#     111305
#     125832
#     133280
#     152615
#     165950
#     178645
# 
# Disc length: 2750
# 
# Revision: 0
# Processed by: cddbd v1.5.2PL0 Copyright (c) Steve Scherf et al.
# Submitted via: fre:ac v1.0.17
# 
DISCID=a50abc0c
DTITLE=Randy Coven - Funk Me Tender (88561-5011-2)
DYEAR=0
DGENRE=
TTITLE0=Star Spangled Banner
TTITLE1=Manhattan Mama
TTITLE2=Caught In The Act
TTITLE3=Funk Me Tender
TTITLE4=Toronto Blues
TTITLE5=Uptown
TTITLE6=Stuff It
TTITLE7=Yesterday
TTITLE8=Tree
TTITLE9=The Chase
TTITLE10=Poached Antelope
TTITLE11=Chopped Sewage
EXTD=
EXTT0=
EXTT1=
EXTT2=
EXTT3=
EXTT4=
EXTT5=
EXTT6=
EXTT7=
EXTT8=
EXTT9=
EXTT10=
EXTT11=
PLAYORDER=
